<svg xmlns="http://www.w3.org/2000/svg" width="300" height="300"><path d="M186.604 279.16c0-4.187 6.833-20.983 15.185-37.324 8.351-16.34 17.892-39.574 21.2-51.63 5.947-21.665 8.01-56.85 3.698-63.059-2.738-3.943-16.413-13.453-19.344-13.453-1.179 0-5.08 9.88-8.668 21.957-3.59 12.077-7.773 24.325-9.298 27.218-1.525 2.892-2.773 6.783-2.773 8.646 0 1.863-3.407 10.17-7.572 18.462-4.164 8.291-7.572 17.007-7.572 19.369 0 2.362-2.774 7.069-6.165 10.46-5.31 5.31-6.759 5.572-10.444 1.887-3.684-3.685-3.4-6.744 2.049-22.066 3.48-9.783 8.86-21.406 11.958-25.827 3.097-4.422 5.631-9.783 5.631-11.913 0-4.513 11.019-37.568 15.745-47.232 3.727-7.622 1.415-16.105-4.388-16.105-4.996 0-13.14-25.737-11.978-37.858 1.245-12.992 11.764-32.7 23.552-44.126 8.525-8.262 10.879-9.208 14.804-5.95 6.688 5.55 5.81 10.134-3.662 19.098-25.426 24.064-27.31 36.974-8.114 55.615 5.773 5.606 11.547 10.192 12.833 10.192 3.62 0 26.664 21.98 30.177 28.784 4.592 8.891-2.758 61.965-12.161 87.82-18.496 50.86-44.693 90.153-44.693 67.035zM61.67 243.57c-11.04-6.193-14.436-19.056-13.898-52.647.594-37.108 4.893-57.407 13.423-63.381 3.315-2.322 13.887-5.675 23.494-7.45 30.94-5.72 57.677 4.304 60.741 22.773 2.759 16.63 2.555 60.257-.339 72.523-3.892 16.493-5.61 18.812-17.661 23.848-12.797 5.347-58.578 8.365-65.76 4.335zm27.785-45.83c.207-12.98-.436-14.383-6.585-14.345-20.316.123-22.893 4.42-18.52 30.875 1.42 8.59 3.727 11.865 9.81 13.928 7.135 2.42 8.319 1.733 11.509-6.687 1.955-5.162 3.659-15.86 3.786-23.772zm38.955 10.701c3.766-21.86 2.435-25.088-10.352-25.088-8.13 0-10.942 1.555-13.106 7.247-1.515 3.986-2.245 9.778-1.622 12.872 4.519 22.426 4.433 22.283 13.37 22.283 8.251 0 8.89-.944 11.71-17.314zm-38.628-47.803c.902-4.997 1.07-12.255.374-16.13-1.06-5.904-2.547-6.729-9.197-5.1-10.805 2.646-14.92 7.451-15.584 18.201-.857 13.874-.695 14.06 11.425 13.055 9.934-.823 11.547-2.069 12.982-10.026zm39.894-7.559c-1.098-16.688-2.99-18.77-14.89-16.39-9.605 1.92-10.13 4.063-7.211 29.432.155 1.35 5.393 2.031 11.64 1.514l11.357-.94-.896-13.616zm-55.426-46.296c-7.498-5.722-14.998-22.334-13.566-30.046.711-3.828 1.394-9.817 1.518-13.31.48-13.539 8.991-17.986 35.442-18.52 27.62-.558 33.808 2.668 41.8 21.795 10.177 24.357-8.946 44.05-42.6 43.867-9.767-.053-19.935-1.757-22.594-3.786zm46.805-18.076c10.406-10.708 1.495-25.48-17.2-28.514-23.04-3.74-36.469 7.814-28.757 24.74 3.151 6.916 5.097 7.56 22.861 7.56 11.552 0 20.907-1.534 23.096-3.786zm-75.59-57.272c-2.999-4.873 3.078-11.193 12.453-12.951 5.618-1.054 22.9-1.993 38.406-2.086 15.505-.093 34.143-.209 41.417-.257 14.181-.096 21.123 5.491 14.68 11.814-3.961 3.886-104.69 7.164-106.956 3.48z" fill="#fdec00"/></svg>