<svg id="Layer_1" xmlns="http://www.w3.org/2000/svg" viewBox="0 0 112.8 392.8"><style>.st0{fill:#b5b6ba}.st1{fill:#555}.st2{fill:#c7cad1}.st3{fill:#cccdcf}.st4{opacity:.2;fill:url(#SVGID_1_)}.st5{fill:#fff}.st6{fill:#2b2c33}.st7{fill:#4afff1}.st8{fill:#231f20}.st9{fill:none;stroke:#231f20;stroke-width:1.5751;stroke-miterlimit:10}.st10{fill:#6b6b6b}.st11,.st12{fill:#cccdcf;stroke:#2b2c33;stroke-width:1.0483;stroke-miterlimit:10}.st12{fill:none;stroke:#cccdcf;stroke-width:1.2552}</style><circle class="st0" cx="11.2" cy="220.7" r="8.6"/><path class="st0" d="M103.6 226.4c0 6.3-4.4 9.1-9.9 9.1s-8.3-5-8.3-11.3 2.8-15 8.3-15c5.5-.1 9.9 8.2 9.9 17.2z"/><path class="st1" d="M97.9 251.2l13.3-14.3-25.5-23.8-13.3 14.2z"/><path class="st0" d="M91.1 222c-.9 5-2.2 6.2-3.4 6-1.2-.2-1.9-2.1-1-6.8 1.6-8.7 2.2-6.2 3.4-6 1.2.2 2.5-1.1 1 6.8z"/><path class="st2" d="M104.1 157.5h-.3l-4.8-47-1.4-13.2-.4-4.4v-.1l-.6-5.4c-.1-.9-.9-1.7-1.7-1.9L66 78.2l-13.4 5.6-11.5-5.9-30.5 7.6c-.8.2-1.6 1.3-1.7 2.2l-2.4 22.8h.1l-4.8 47h-.2l.1 1.8-.1.8.1.1 2.6 54.3h13.3V162h.3l6.1-38.2 4.2 67.6h48.9l4.1-67.4 5.6 38h-.3v52.4h14.6l2.6-54h.1l-.1-1 .4-1.9z"/><path class="st3" d="M41.7 69.8v8l-.6.1 11.7 14.9 14-14.4-2.9-.6v-7.9z"/><linearGradient id="SVGID_1_" gradientUnits="userSpaceOnUse" x1="52.805" y1="82.535" x2="52.805" y2="69.221"><stop offset="0" stop-opacity="0"/><stop offset="1"/></linearGradient><path class="st4" d="M41.7 69.2h22.2v13.3H41.7z"/><path class="st5" d="M40.6 96.5l-1-18.3 2-4.1 11 9.7zM64.2 96.5L66 78.2l-2-4.1-11.4 9.7z"/><path class="st3" d="M72.1 62.5l2.5-9.6c.2-.9.4-2.2.5-3.3.3.1.6.2.9.2 1.2 0 2.2-1 2.2-2.2l1.3-11.8c0-.2.1-.3.1-.5 0-1.2-1-2.2-2.2-2.2-1.2 0-2.2 1-2.2 2.2v-6.7c0-.2 0-.4-.1-.6 0-.6.1-1.2.1-1.8 0-12.5-18.6-22.6-22.6-22.6C40.1 3.6 30 13.7 30 26.2c0 .8 0 1.5.1 2.3v.1l.3 6.6c-.1-1.2-1-2.1-2.2-2.1-1.2 0-2.2 1-2.2 2.2 0 .2 0 .3.1.5l1.3 11.8c0 1.2 1 2.2 2.2 2.2.6 0 1.1-.2 1.5-.6.1 1.1.3 2.3.5 3.2l1.9 8.8c.3 1.3 1.2 3.1 2.1 4l7.5 8.1c.9 1 2.7 1.7 4 1.7h11.3c1.3 0 3.1-.7 4.1-1.6l7.3-7c.9-.9 2-2.6 2.3-3.9z"/><path class="st6" d="M54 66.1h-2.8l-.3-3.1h3.4z"/><path class="st6" d="M75.2 35.3v-6.7-1.2-1.2-1.1L71.7 21s3.5 31.2-.9 38.6c-1.3 2.1-4.7 4.3-8 5.8 0-2.6 0-7.7-.5-8.8-1-2-9.4-2.5-9.4-2.5V56s6 .2 7.2 1.7c.6.7.4 6.9.4 8.7-1.2.5-2.4.8-3.3 1-2.3.4-7 .6-9.2 0-1-.2-2.1-.7-3.3-1.4-.1-2.2-.2-7.7.4-8.3 1.2-1.5 7.2-1.7 7.2-1.7v-1.9s-8.4.4-9.4 2.5c-.5 1-.5 5.4-.5 8.1-3.2-2-6.3-4.7-7.5-6.9-3.8-7.2-1.2-32.6-1.2-32.6H30v1.1c0 .8 0 1.5.1 2.3v.1l.3 6.6.7 14.1c.1 1.1.3 2.3.5 3.2l1.9 8.8c.3 1.3 1.2 3.1 2.1 4l7.5 8.1c.9 1 2.7 1.7 4 1.7h11.3c1.3 0 3.1-.7 4.1-1.6l7.3-7c.9-.9 2-2.7 2.3-3.9l2.5-9.6c.2-.9.4-2.2.5-3.3l.1-14.5z"/><path class="st7" d="M50.1 85v5.7l-9.5 2.8V82.2zM54.8 90.7V85l9.4-2.8v11.3z"/><path class="st7" d="M50.1 84.7h4.7V91h-4.7z"/><path class="st8" d="M68.4 42.6H57.5c-1.7 0-3.2-1.4-3.2-3.2V37c0-1.7 1.4-3.2 3.2-3.2h10.9c1.7 0 3.2 1.4 3.2 3.2v2.5c0 1.7-1.4 3.1-3.2 3.1zm-10.9-7.2c-.9 0-1.6.7-1.6 1.6v2.5c0 .9.7 1.6 1.6 1.6h10.9c.9 0 1.6-.7 1.6-1.6V37c0-.9-.7-1.6-1.6-1.6H57.5zM48 42.6H36.8c-1.7 0-3.2-1.4-3.2-3.2V37c0-1.7 1.4-3.2 3.2-3.2H48c1.7 0 3.2 1.4 3.2 3.2v2.5c0 1.7-1.5 3.1-3.2 3.1zm-11.2-7.2c-.9 0-1.6.7-1.6 1.6v2.5c0 .9.7 1.6 1.6 1.6H48c.9 0 1.6-.7 1.6-1.6V37c0-.9-.7-1.6-1.6-1.6H36.8z"/><path class="st8" d="M49.8 34.8h5.9v1.6h-5.9z"/><path class="st9" d="M69.3 34.9h6.4M30 34.9h5.8"/><path class="st6" d="M75.2 25s-.4-.1-3-1.3c-3-1.4-8.7-5.1-14.6-5.1-5.5 0-15.1 4.6-20.4 5.8-5.7 1.3-7.3.9-7.3.9s.7-9.5 2.1-12c2-3.6 8.4-11.2 12.5-11.6 5-.5 23.9 6.2 28.8 12.2 1.7 2 1.9 11.1 1.9 11.1z"/><path class="st6" d="M55.7 18.3s-7.2 1.7-13.4 5C36.7 26.2 32 32 32 32l-.6-12h13.8l10.5-1.7zM77.3 191.5H28.4l.4 30h-.1v64.2l1 96.8h16.6l2.9-96 3.6-65h.1l3.5 65h.1l2.8 96h16.6l.8-96.8v-65.2h.2z"/><path class="st10" d="M46.3 391.2H8.2v-2.8l21.5-6.5h16.6zM59.4 391.2h38.1v-2.8L76 381.9H59.4z"/><path class="st3" d="M29.3 194h46.9v5.9H29.3z"/><path class="st11" d="M46.4 192.6h12.7v8.7H46.4z"/><path class="st12" d="M65.1 202.3c0 5.5 4.4 9.9 9.9 9.9M30.7 212.2c5.5 0 9.9-4.4 9.9-9.9"/></svg>